<?xml version="1.0" encoding="iso-8859-1"?>
<!-- Generator: Adobe Illustrator 16.0.0, SVG Export Plug-In . SVG Version: 6.00 Build 0)  -->
<!DOCTYPE svg PUBLIC "-//W3C//DTD SVG 1.1//EN" "http://www.w3.org/Graphics/SVG/1.1/DTD/svg11.dtd">
<svg version="1.1" xmlns="http://www.w3.org/2000/svg" xmlns:xlink="http://www.w3.org/1999/xlink" x="0px" y="0px"
	 width="15.178px" height="32px" viewBox="0 0 15.178 32" style="enable-background:new 0 0 15.178 32;" xml:space="preserve">
<g id="Layer_1_1_">
	<path id="temperature" style="fill:#353535;" d="M15.178,8.277V5.586H6.28c0-1.436,0-2.576,0-3.254C6.28,1.044,5.235,0,3.948,0
		S1.616,1.044,1.616,2.332c0,2.848,0,16.074,0,22.539C0.638,25.59,0,26.744,0,28.052C0,30.232,1.768,32,3.948,32
		c2.181,0,3.948-1.768,3.948-3.948c0-1.308-0.638-2.462-1.616-3.181c0-1.013,0-2.19,0-3.47h8.897V18.71H6.28c0-1.26,0-2.565,0-3.87
		h8.897v-2.691H6.28c0-1.352,0-2.66,0-3.871H15.178L15.178,8.277z"/>
</g>
<g id="Layer_1">
</g>
</svg>
