<svg xmlns="http://www.w3.org/2000/svg" xmlns:xlink="http://www.w3.org/1999/xlink" width="32.004" height="137" viewBox="0 0 32.004 137"><svg width="32" height="21" viewBox="0 0 32 21" id="blind" y="0"><g fill="#353535"><path d="M32 0H.355L0 1h31.645M0 3h31.645L32 2H.355M0 5h31.645L32 4H.355M0 7h31.645L32 6H.355M0 9h31.645L32 8H.355M0 11h31.645L32 10H.355M0 13h31.645L32 12H.355M0 15h31.645L32 14H.355M0 17h31.645L32 16H.355M0 19h31.645L32 18H.355M0 21h31.645L32 20H.355"/></g></svg>
<svg width="28" height="28" viewBox="0 0 28 28" id="fan" y="21"><path d="M17.595 13.107c1.13-.406 3.012-.662 4.82.342 3.074 1.706 5.964-.892 5.543-3.768-.373-2.55-1.947-5.144-3.945-6.187-2.99-1.56-5.254-.69-7.006 1.21-1.147 1.246-2.347 3.445-2.44 5.535-.044.982-1.186.932-1.46.165-.405-1.13-.663-3.013.34-4.82C15.158 2.51 12.558-.38 9.684.04 7.133.415 4.538 1.99 3.495 3.99c-1.558 2.988-.69 5.252 1.21 7.004 1.246 1.148 3.445 2.35 5.533 2.44.984.044.934 1.187.166 1.46-1.13.407-3.012.664-4.82-.34-3.074-1.71-5.964.89-5.543 3.766.374 2.55 1.947 5.145 3.948 6.187 2.988 1.56 5.252.69 7.004-1.21 1.146-1.245 2.348-3.443 2.44-5.533.044-.984 1.186-.932 1.46-.167.405 1.13.663 3.013-.34 4.82-1.71 3.075.887 5.965 3.764 5.544 2.55-.374 5.145-1.946 6.186-3.947 1.56-2.99.69-5.252-1.21-7.005-1.245-1.146-3.444-2.348-5.532-2.44-.984-.045-.933-1.186-.165-1.46zM14 15.42c-.784 0-1.42-.635-1.42-1.42s.636-1.42 1.42-1.42c.785 0 1.42.637 1.42 1.42s-.635 1.42-1.42 1.42z" fill="#353535"/></svg>
<svg width="29.387" height="31.999" viewBox="0 0 29.387 31.999" id="light" y="49"><g fill="#353535"><path d="M14.693 6.39c-4.578 0-8.41 3.725-8.41 8.304 0 3.22 2.022 6.093 4.577 7.476v3.28c0 .347.318.66.642.79.98.393 2.072.592 3.138.592s2.237-.2 3.22-.594c.32-.13.665-.44.665-.79V22.17c2.555-1.383 4.578-4.256 4.578-7.476 0-4.58-3.832-8.304-8.41-8.304zm-.852 18.68c-.425-.046-.85-.118-1.276-.226v-3.23c0-.348-.106-.662-.43-.79-2.52-1.01-4.095-3.416-4.095-6.13 0-3.64 2.987-6.602 6.627-6.602 3.64 0 6.665 2.96 6.665 6.602 0 2.713-1.56 5.12-4.08 6.13-.324.128-.43.44-.43.79v3.23c-.426.105-.852.178-1.278.225M17.162 27.208c-1.564.63-3.356.63-4.92.006-.436-.176-.933.037-1.107.475-.175.435.037.93.474 1.104.98.395 2.02.594 3.083.594 1.072 0 2.118-.203 3.106-.602.435-.176.645-.672.47-1.107s-.672-.65-1.108-.472zM15.826 30.2c-.74.13-1.52.13-2.266 0-.464-.082-.904.23-.983.693-.08.465.23.904.694.986.468.077.946.118 1.423.118.48 0 .957-.04 1.422-.12.465-.08.775-.522.695-.985-.08-.462-.523-.77-.984-.693zM14.693 5.11c.706 0 1.277-.572 1.277-1.277V1.277C15.97.57 15.4 0 14.693 0c-.705 0-1.277.57-1.277 1.277v2.556c0 .705.572 1.277 1.277 1.277zM6.117 7.91c.25.25.577.374.903.374.326 0 .654-.125.903-.375.5-.5.5-1.308 0-1.808L6.117 4.297c-.5-.5-1.308-.5-1.806 0-.5.5-.5 1.308 0 1.806L6.118 7.91zM5.11 14.685c0-.707-.572-1.277-1.277-1.278H1.278C.572 13.404 0 13.976 0 14.682s.57 1.277 1.277 1.277h2.555c.705 0 1.278-.57 1.278-1.275zM6.104 21.462L4.297 23.27c-.5.497-.5 1.308 0 1.806.25.25.577.373.903.373.328 0 .654-.124.904-.374L7.91 23.27c.5-.5.5-1.308 0-1.808-.5-.498-1.308-.498-1.806 0zM23.27 21.476c-.5-.498-1.307-.498-1.807 0-.498.5-.498 1.31 0 1.81l1.807 1.804c.25.25.576.375.902.375s.654-.125.902-.375c.5-.498.5-1.307 0-1.805l-1.804-1.81zM28.11 13.444H25.55c-.705 0-1.277.572-1.277 1.278 0 .705.572 1.276 1.277 1.276h2.557c.704 0 1.276-.57 1.276-1.276 0-.705-.572-1.278-1.277-1.278zM22.38 8.298c.327 0 .653-.125.903-.375l1.807-1.805c.498-.5.498-1.31 0-1.807-.5-.5-1.307-.5-1.807 0L21.476 6.12c-.498.498-.498 1.307 0 1.805.25.25.577.375.905.375z"/></g></svg>
<svg width="32.004" height="23.255" viewBox="0 0 32.004 23.255" id="motion" y="81"><g fill="#353535"><circle cx="5.45" cy="2.293" r="2.293"/><path d="M18.754 17.255h-5.182l-.062-5.234c0-.174-.05-.363-.14-.513l-3.198-5.29.022.053.475-1.015h2.634L14 7.672V7.7c0 .54.107.972.648.964.54-.01.8-.453.792-.994l-.09-3.61c0-.54-.48-.98-1.022-.98l-4.285.003c-.17 0-.347.045-.494.128L4.313 6.284c-.306.174-.314.5-.314.852v3.432l-3.004-.312H.97c-.542 0-.974.536-.965 1.076.008.542.15 1.015.69 1.007L4 12.395v-.01c1 0 1.283-.442 1.283-.983l.15-3.196.99.08.12.007 2.722 4.49-3.87 2.507c-.282.178-.395.49-.395.823v6.176c0 .54.474.972 1.014.964.54-.006.986-.45.986-.99V16.65l4.21-2.73c.143-.09.225-.218.304-.368.03.014.044.025.075.036l.045 4.146c.006.535.434 1.522.97 1.522h6.176c.542 0 .974-.973.966-1.514-.008-.54-.45-.487-.992-.487zM31.025 3.255H18.258c-.54 0-.98.588-.98 1 0 .413.44 1 .98 1h12.768c.54 0 .98-.587.98-1-.002-.412-.44-1-.98-1zM27.762 8.255h-9.504c-.54 0-.98.46-.98 1s.44 1 .98 1h9.504c.54 0 .98-.46.98-1s-.44-1-.98-1zM24.5 13.255h-6.242c-.54 0-.98.46-.98 1s.44 1 .98 1h6.24c.542 0 .98-.46.98-1s-.438-1-.98-1z"/></g></svg>
<svg width="15.178" height="32" viewBox="0 0 15.178 32" id="thermostat" y="105"><path d="M15.178 8.277v-2.69H6.28V2.33C6.28 1.044 5.235 0 3.948 0S1.616 1.044 1.616 2.332v22.54C.638 25.59 0 26.743 0 28.05 0 30.232 1.768 32 3.948 32c2.18 0 3.948-1.768 3.948-3.948 0-1.308-.638-2.462-1.616-3.18V21.4h8.897V18.71H6.28v-3.87h8.897v-2.69H6.28V8.277h8.898z" fill="#ccc"/></svg>
</svg>