<?xml version="1.0" encoding="iso-8859-1"?>
<!-- Generator: Adobe Illustrator 16.0.0, SVG Export Plug-In . SVG Version: 6.00 Build 0)  -->
<!DOCTYPE svg PUBLIC "-//W3C//DTD SVG 1.1//EN" "http://www.w3.org/Graphics/SVG/1.1/DTD/svg11.dtd">
<svg version="1.1" xmlns="http://www.w3.org/2000/svg" xmlns:xlink="http://www.w3.org/1999/xlink" x="0px" y="0px" width="32px"
	 height="21px" viewBox="0 0 32 21" style="enable-background:new 0 0 32 21;" xml:space="preserve">
<g id="Layer_1_1_">
	<g id="blind">
		<polygon style="fill:#353535;" points="32,0 0.355,0 0,1 31.645,1 		"/>
		<polygon style="fill:#353535;" points="0,3 31.645,3 32,2 0.355,2 		"/>
		<polygon style="fill:#353535;" points="0,5 31.645,5 32,4 0.355,4 		"/>
		<polygon style="fill:#353535;" points="0,7 31.645,7 32,6 0.355,6 		"/>
		<polygon style="fill:#353535;" points="0,9 31.645,9 32,8 0.355,8 		"/>
		<polygon style="fill:#353535;" points="0,11 31.645,11 32,10 0.355,10 		"/>
		<polygon style="fill:#353535;" points="0,13 31.645,13 32,12 0.355,12 		"/>
		<polygon style="fill:#353535;" points="0,15 31.645,15 32,14 0.355,14 		"/>
		<polygon style="fill:#353535;" points="0,17 31.645,17 32,16 0.355,16 		"/>
		<polygon style="fill:#353535;" points="0,19 31.645,19 32,18 0.355,18 		"/>
		<polygon style="fill:#353535;" points="0,21 31.645,21 32,20 0.355,20 		"/>
	</g>
</g>
<g id="Layer_1">
</g>
</svg>
