<?xml version="1.0" encoding="iso-8859-1"?>
<!-- Generator: Adobe Illustrator 16.0.0, SVG Export Plug-In . SVG Version: 6.00 Build 0)  -->
<!DOCTYPE svg PUBLIC "-//W3C//DTD SVG 1.1//EN" "http://www.w3.org/Graphics/SVG/1.1/DTD/svg11.dtd">
<svg version="1.1" xmlns="http://www.w3.org/2000/svg" xmlns:xlink="http://www.w3.org/1999/xlink" x="0px" y="0px" width="28px"
	 height="28px" viewBox="0 0 28 28" style="enable-background:new 0 0 28 28;" xml:space="preserve">
<g id="Layer_1_1_">
	<path id="fan_1_" style="fill:#353535;" d="M17.595,13.107c1.129-0.406,3.012-0.662,4.82,0.342
		c3.074,1.707,5.964-0.891,5.543-3.767c-0.373-2.549-1.947-5.144-3.945-6.187c-2.99-1.559-5.254-0.691-7.006,1.211
		C15.86,5.951,14.66,8.15,14.568,10.24c-0.045,0.982-1.187,0.932-1.461,0.165c-0.405-1.129-0.663-3.013,0.341-4.82
		c1.708-3.075-0.89-5.964-3.765-5.544c-2.55,0.373-5.145,1.947-6.188,3.947c-1.558,2.988-0.69,5.252,1.211,7.004
		c1.245,1.148,3.444,2.349,5.532,2.441c0.984,0.043,0.934,1.186,0.166,1.46c-1.129,0.406-3.012,0.663-4.82-0.341
		c-3.074-1.709-5.964,0.89-5.543,3.766c0.373,2.549,1.946,5.145,3.947,6.187c2.988,1.559,5.252,0.691,7.004-1.21
		c1.146-1.245,2.348-3.443,2.439-5.533c0.045-0.984,1.187-0.932,1.462-0.167c0.404,1.13,0.662,3.013-0.342,4.821
		c-1.708,3.074,0.888,5.964,3.765,5.543c2.549-0.373,5.145-1.945,6.186-3.946c1.561-2.989,0.691-5.252-1.209-7.005
		c-1.246-1.146-3.445-2.348-5.533-2.439C16.776,14.523,16.827,13.382,17.595,13.107z M14,15.421c-0.784,0-1.42-0.636-1.42-1.42
		s0.636-1.42,1.42-1.42c0.785,0,1.419,0.636,1.419,1.42S14.785,15.421,14,15.421z"/>
</g>
<g id="Layer_1">
</g>
</svg>
