<?xml version="1.0" encoding="iso-8859-1"?>
<!-- Generator: Adobe Illustrator 16.0.0, SVG Export Plug-In . SVG Version: 6.00 Build 0)  -->
<!DOCTYPE svg PUBLIC "-//W3C//DTD SVG 1.1//EN" "http://www.w3.org/Graphics/SVG/1.1/DTD/svg11.dtd">
<svg version="1.1" xmlns="http://www.w3.org/2000/svg" xmlns:xlink="http://www.w3.org/1999/xlink" x="0px" y="0px"
	 width="29.387px" height="31.999px" viewBox="0 0 29.387 31.999" style="enable-background:new 0 0 29.387 31.999;"
	 xml:space="preserve">
<g id="Layer_1_1_">
	<g id="light">
		<path style="fill:#353535;" d="M14.693,6.39c-4.578,0-8.41,3.725-8.41,8.304c0,3.22,2.022,6.093,4.577,7.476v3.279
			c0,0.348,0.318,0.662,0.642,0.791c0.981,0.393,2.072,0.592,3.138,0.592s2.237-0.199,3.219-0.594
			c0.322-0.129,0.666-0.441,0.666-0.789v-3.279c2.555-1.383,4.578-4.256,4.578-7.476C23.104,10.114,19.271,6.39,14.693,6.39z
			 M13.841,25.069c-0.426-0.045-0.852-0.117-1.277-0.225v-3.23c0-0.348-0.106-0.662-0.429-0.789c-2.52-1.01-4.096-3.417-4.096-6.131
			c0-3.641,2.988-6.602,6.628-6.602c3.639,0,6.665,2.961,6.665,6.602c0,2.713-1.561,5.119-4.08,6.129
			c-0.324,0.129-0.43,0.441-0.43,0.791v3.23c-0.426,0.105-0.852,0.178-1.278,0.225"/>
		<path style="fill:#353535;" d="M17.162,27.208c-1.564,0.629-3.356,0.631-4.92,0.006c-0.436-0.176-0.933,0.037-1.107,0.475
			c-0.175,0.436,0.037,0.932,0.474,1.105c0.981,0.395,2.02,0.594,3.084,0.594c1.072,0,2.118-0.203,3.106-0.602
			c0.436-0.176,0.646-0.672,0.471-1.107S17.598,27.03,17.162,27.208z"/>
		<path style="fill:#353535;" d="M15.826,30.2c-0.74,0.129-1.521,0.129-2.266,0c-0.464-0.082-0.904,0.23-0.983,0.693
			c-0.081,0.465,0.23,0.904,0.694,0.986c0.467,0.078,0.945,0.119,1.422,0.119c0.479,0,0.957-0.041,1.422-0.121
			c0.465-0.08,0.775-0.521,0.695-0.984C16.729,30.431,16.287,30.122,15.826,30.2z"/>
		<path style="fill:#353535;" d="M14.693,5.11c0.706,0,1.277-0.572,1.277-1.277V1.277C15.97,0.571,15.399,0,14.693,0
			c-0.705,0-1.277,0.571-1.277,1.277v2.556C13.416,4.538,13.988,5.11,14.693,5.11z"/>
		<path style="fill:#353535;" d="M6.117,7.909c0.249,0.25,0.577,0.375,0.903,0.375c0.326,0,0.654-0.125,0.903-0.375
			c0.499-0.498,0.499-1.307,0-1.807L6.117,4.297c-0.499-0.499-1.308-0.499-1.806,0c-0.5,0.499-0.5,1.308,0,1.806L6.117,7.909z"/>
		<path style="fill:#353535;" d="M5.11,14.685c0-0.707-0.572-1.277-1.277-1.278l-2.555-0.001h0C0.572,13.405,0,13.978,0,14.683
			s0.571,1.277,1.277,1.277l2.555,0.001c0,0,0,0,0,0C4.537,15.961,5.11,15.39,5.11,14.685z"/>
		<path style="fill:#353535;" d="M6.104,21.462l-1.807,1.807c-0.499,0.498-0.499,1.309,0,1.807c0.25,0.25,0.577,0.373,0.903,0.373
			c0.328,0,0.654-0.123,0.904-0.373l1.807-1.807c0.499-0.498,0.499-1.307,0-1.807C7.411,20.964,6.602,20.964,6.104,21.462z"/>
		<path style="fill:#353535;" d="M23.27,21.476c-0.5-0.498-1.307-0.498-1.807,0c-0.498,0.5-0.498,1.309,0,1.809l1.807,1.805
			c0.25,0.25,0.576,0.375,0.902,0.375s0.654-0.125,0.902-0.375c0.5-0.498,0.5-1.307,0-1.805L23.27,21.476z"/>
		<path style="fill:#353535;" d="M28.109,13.444h-2.557c-0.705,0-1.277,0.572-1.277,1.278c0,0.705,0.572,1.276,1.277,1.276h2.557
			c0.705,0,1.277-0.571,1.277-1.276C29.387,14.017,28.814,13.444,28.109,13.444z"/>
		<path style="fill:#353535;" d="M22.381,8.298c0.326,0,0.652-0.125,0.902-0.375l1.807-1.805c0.498-0.5,0.498-1.309,0-1.807
			c-0.5-0.5-1.307-0.5-1.807,0l-1.807,1.807c-0.498,0.498-0.498,1.307,0,1.805C21.727,8.173,22.053,8.298,22.381,8.298z"/>
	</g>
</g>
<g id="Layer_1">
</g>
</svg>
