<?xml version="1.0" encoding="iso-8859-1"?>
<!-- Generator: Adobe Illustrator 16.0.0, SVG Export Plug-In . SVG Version: 6.00 Build 0)  -->
<!DOCTYPE svg PUBLIC "-//W3C//DTD SVG 1.1//EN" "http://www.w3.org/Graphics/SVG/1.1/DTD/svg11.dtd">
<svg version="1.1" xmlns="http://www.w3.org/2000/svg" xmlns:xlink="http://www.w3.org/1999/xlink" x="0px" y="0px"
	 width="32.004px" height="23.255px" viewBox="0 0 32.004 23.255" style="enable-background:new 0 0 32.004 23.255;"
	 xml:space="preserve">
<g id="Layer_1_1_">
	<g id="motion">
		<circle style="fill:#353535;" cx="5.45" cy="2.293" r="2.293"/>
		<path style="fill:#353535;" d="M18.754,17.255h-5.182l-0.062-5.234c-0.001-0.175-0.051-0.364-0.141-0.514l-3.197-5.289
			l0.022,0.052l0.475-1.015h2.635L14,7.672c0,0.009,0,0.018,0,0.027c0,0.541,0.107,0.973,0.648,0.965
			c0.54-0.009,0.799-0.453,0.792-0.994l-0.089-3.611c-0.001-0.54-0.482-0.978-1.023-0.978l-4.285,0.002
			C9.874,3.084,9.696,3.128,9.549,3.211L4.314,6.283C4.008,6.457,4,6.782,4,7.135v3.432l-3.004-0.312c-0.009,0-0.019,0-0.027,0
			c-0.541,0-0.973,0.536-0.964,1.076c0.008,0.541,0.149,1.014,0.69,1.006L4,12.395v-0.009c1,0,1.283-0.443,1.283-0.984l0.151-3.196
			l0.989,0.08l0.12,0.007l2.722,4.49l-3.87,2.507C5.113,15.468,5,15.779,5,16.113v6.149c0,0.009,0,0.019,0,0.027
			c0,0.541,0.474,0.973,1.014,0.965C6.554,23.248,7,22.804,7,22.263v-5.613l4.21-2.729c0.143-0.092,0.225-0.219,0.304-0.369
			c0.03,0.014,0.044,0.025,0.075,0.036l0.046,4.146c0.006,0.535,0.434,1.522,0.97,1.522h6.149c0.01,0,0.019,0,0.027,0
			c0.541,0,0.973-0.973,0.965-1.514C19.738,17.201,19.295,17.255,18.754,17.255z"/>
		<path style="fill:#353535;" d="M31.025,3.255H18.258c-0.541,0-0.979,0.588-0.979,1c0,0.413,0.438,1,0.979,1h12.768
			c0.54,0,0.979-0.587,0.979-1C32.004,3.843,31.565,3.255,31.025,3.255z"/>
		<path style="fill:#353535;" d="M27.762,8.255h-9.504c-0.541,0-0.979,0.459-0.979,1s0.438,1,0.979,1h9.504
			c0.541,0,0.979-0.459,0.979-1S28.303,8.255,27.762,8.255z"/>
		<path style="fill:#353535;" d="M24.499,13.255h-6.241c-0.541,0-0.979,0.459-0.979,1s0.438,1,0.979,1h6.241
			c0.541,0,0.979-0.459,0.979-1S25.04,13.255,24.499,13.255z"/>
	</g>
</g>
<g id="Layer_1">
</g>
</svg>
