<svg width="3492" height="417" viewBox="0 0 3492 417" xmlns="http://www.w3.org/2000/svg"><title>icon 20</title><g fill="none" fill-rule="evenodd"><path d="M2137 178h124v91h-124v68h160v85h-251V15h91v163zm0-77h160V16h-160v85zm785.672 321.455h5.51l75.97-228.72 42.488 228.72h90.444l-67.362-401.62h-105.83l-80.746 283.645-94.994-283.533h-97.465l2.195 5.576L2676 422.566h81.398l14.224-195.968 77.123 195.968h73.964l-.04-.11z" fill="#4A4A4A"/><path d="M2617.863 213.052l1.22 1.22-74.317 74.317-130.743 130.742-49.498-49.498 156.78-156.78L2364.52 56.272l49.5-49.498 74.316 74.317 130.744 130.746-1.217 1.217z" fill="#9B9B9B"/><path d="M3334 179h124v91h-124v68h160v85h-251V16h91v163zm0-77h160V17h-160v85zM1778.57 280.808L1685.434 20.8h-108.51l139.803 401.62h121.947L1978.48 20.8h-103.594l-96.316 260.01zm-430.708-37.118l29.153-81.387 30.15 81.387h-59.303zm-21.492 60l-42.49 118.62h-108.51l139.804-401.62h121.948l139.803 401.62h-103.593l-43.94-118.62H1326.37zM911.45 20.8h27.056l59.24 217.262 46.288-217.26h100.73l-88.61 401.618h-105.83l-77.39-256.18-67.81 256.07h-92.772L606 20.69h106.354l48.524 227.575L814.994 20.69h96.485l-.03.11z" fill="#4A4A4A"/><path fill="#9B9B9B" d="M363 179h165v78H363z"/><path d="M283.093 107H284V21H2v86h174.08L2.765 337H2v86h282v-86H116.208L283.16 107.003l-.067-.003z" fill="#4A4A4A"/></g></svg>