<svg width="4034" height="482" viewBox="0 0 4034 482" xmlns="http://www.w3.org/2000/svg"><title>icon 20</title><g fill="none" fill-rule="evenodd"><path d="M2466.377 198.398h143.247v104.967h-143.247V381.8h184.834v98.047h-289.956V10.38h105.124V198.4zm0-88.818h184.834V11.535H2466.38v98.045zm907.618 370.792h6.364l87.76-263.826 49.083 263.826h104.482l-77.817-463.26h-122.256l-93.28 327.177-109.738-327.05h-112.592l2.535 6.432-19.503 456.827h94.032l16.43-226.046L3288.59 480.5h85.443l-.042-.13z" fill="#14E4F3"/><path d="M3021.658 238.83l1.45 1.45-85.723 85.723-150.81 150.81-57.18-57.18 180.8-180.8L2729.39 58.03 2786.57.85l85.724 85.723 150.81 150.81-1.446 1.446z" fill="#9B9B9B"/><path d="M3849.166 199.552h143.246v104.966h-143.246v78.436H4034V481h-289.958V11.535h105.124v188.017zm0-88.818H4034V12.688h-184.834v98.046zm-1796.853 206.25l-107.59-299.91h-125.35l161.5 463.257h140.876l161.5-463.256h-119.67l-111.267 299.91zm-497.557-42.814l33.678-93.878 34.828 93.878h-68.506zm-24.828 69.21l-49.084 136.824h-125.352l161.502-463.26h140.876l161.502 463.26H1699.7l-50.76-136.825h-119.012zm-479.32-326.307h31.255l68.433 250.605 53.474-250.605h116.365L1217.77 480.33h-122.253l-89.4-295.497-78.337 295.37H820.61L697.748 16.946H820.61l56.055 262.502L939.18 16.945h111.46l-.033.128z" fill="#14E4F3"/><path fill="#9B9B9B" d="M417.032 199.552h190.61v89.97h-190.61z"/><path d="M323.557 116.5h2.213V17.303H0v99.2h200.948L1.03 381.8H0V481h325.77v-99.2H132.08l192.537-265.254-1.06-.045z" fill="#14E4F3"/></g></svg>